<svg width="55" height="55" viewBox="0 0 55 55" fill="none" xmlns="http://www.w3.org/2000/svg">
<g clip-path="url(#clip0_2_474)">
<path d="M27.5061 13.3987C19.7025 13.3987 13.408 19.6946 13.408 27.5C13.408 35.3054 19.7025 41.6013 27.5061 41.6013C35.3098 41.6013 41.6043 35.3054 41.6043 27.5C41.6043 19.6946 35.3098 13.3987 27.5061 13.3987ZM27.5061 36.6677C22.4632 36.6677 18.3405 32.5563 18.3405 27.5C18.3405 22.4437 22.4509 18.3323 27.5061 18.3323C32.5614 18.3323 36.6718 22.4437 36.6718 27.5C36.6718 32.5563 32.5491 36.6677 27.5061 36.6677ZM45.4693 12.8219C45.4693 14.6505 43.9969 16.111 42.181 16.111C40.3528 16.111 38.8926 14.6382 38.8926 12.8219C38.8926 11.0055 40.365 9.5328 42.181 9.5328C43.9969 9.5328 45.4693 11.0055 45.4693 12.8219ZM54.8068 16.16C54.5982 11.7542 53.592 7.85144 50.365 4.636C47.1503 1.42056 43.2485 0.414203 38.8436 0.193295C34.3037 -0.0644315 20.6963 -0.0644315 16.1564 0.193295C11.7638 0.40193 7.86196 1.40829 4.63497 4.62373C1.40798 7.83917 0.41411 11.7419 0.193252 16.1478C-0.0644172 20.6887 -0.0644172 34.2991 0.193252 38.84C0.40184 43.2458 1.40798 47.1486 4.63497 50.364C7.86196 53.5794 11.7515 54.5858 16.1564 54.8067C20.6963 55.0644 34.3037 55.0644 38.8436 54.8067C43.2485 54.5981 47.1503 53.5917 50.365 50.364C53.5798 47.1486 54.5859 43.2458 54.8068 38.84C55.0644 34.2991 55.0644 20.7009 54.8068 16.16ZM48.9417 43.7122C47.9847 46.1176 46.1319 47.9708 43.7147 48.9404C40.0951 50.3763 31.5061 50.0449 27.5061 50.0449C23.5061 50.0449 14.9049 50.364 11.2975 48.9404C8.89264 47.9831 7.03988 46.1299 6.07055 43.7122C4.63497 40.0918 4.96626 31.5009 4.96626 27.5C4.96626 23.4991 4.64724 14.896 6.07055 11.2878C7.02761 8.88235 8.88037 7.02918 11.2975 6.05963C14.9172 4.62373 23.5061 4.95509 27.5061 4.95509C31.5061 4.95509 40.1074 4.636 43.7147 6.05963C46.1196 7.0169 47.9724 8.87008 48.9417 11.2878C50.3773 14.9082 50.046 23.4991 50.046 27.5C50.046 31.5009 50.3773 40.104 48.9417 43.7122Z" fill="white"/>
</g>
<defs>
<clipPath id="clip0_2_474">
<rect width="55" height="55" fill="white"/>
</clipPath>
</defs>
</svg>
